<svg xmlns="http://www.w3.org/2000/svg" width="1800" height="1650" viewBox="0 0 1800 1650" role="img" aria-labelledby="title desc">
  <title id="title">楼上（Loushang）未来目标架构 v3</title>
  <desc id="desc">Product TUI 可使用本地嵌入运行时或连接 AppService；其他客户端通过版本化协议附着到 Application Host。Product、Work、Harness、Agent 和 AI 保持单向责任边界，Capability 仅展示 owner-level 标识与 Mount 运行态。</desc>
  <defs>
    <linearGradient id="pageBg" x1="0" y1="0" x2="0" y2="1">
      <stop offset="0" stop-color="#f8fafc"/>
      <stop offset="1" stop-color="#eef2ff"/>
    </linearGradient>
    <linearGradient id="hostBg" x1="0" y1="0" x2="1" y2="1">
      <stop offset="0" stop-color="#f8fafc"/>
      <stop offset="1" stop-color="#eef2ff"/>
    </linearGradient>
    <filter id="shadow" x="-15%" y="-15%" width="130%" height="140%">
      <feDropShadow dx="0" dy="5" stdDeviation="8" flood-color="#0f172a" flood-opacity="0.12"/>
    </filter>
    <marker id="arrow" markerWidth="12" markerHeight="12" refX="10" refY="6" orient="auto" markerUnits="strokeWidth">
      <path d="M1,1 L11,6 L1,11 Z" fill="#475569"/>
    </marker>
    <marker id="arrowBlue" markerWidth="12" markerHeight="12" refX="10" refY="6" orient="auto" markerUnits="strokeWidth">
      <path d="M1,1 L11,6 L1,11 Z" fill="#2563eb"/>
    </marker>
    <marker id="arrowGreen" markerWidth="12" markerHeight="12" refX="10" refY="6" orient="auto" markerUnits="strokeWidth">
      <path d="M1,1 L11,6 L1,11 Z" fill="#059669"/>
    </marker>
    <style>
      text { font-family: "Noto Sans CJK SC", "Noto Sans SC", "Microsoft YaHei", "DejaVu Sans", sans-serif; fill: #0f172a; }
      .title { font-size: 36px; font-weight: 750; }
      .subtitle { font-size: 17px; fill: #475569; }
      .section { font-size: 20px; font-weight: 700; }
      .box-title { font-size: 19px; font-weight: 700; }
      .box-title-sm { font-size: 16px; font-weight: 700; }
      .copy { font-size: 14px; fill: #475569; }
      .small { font-size: 13px; fill: #64748b; }
      .tiny { font-size: 12px; fill: #64748b; }
      .pill { font-size: 13px; font-weight: 650; }
      .protocol-title { font-size: 18px; font-weight: 700; fill: #ffffff; }
      .protocol-copy { font-size: 13px; fill: #dbeafe; }
      .arrow { fill: none; stroke: #475569; stroke-width: 2.4; marker-end: url(#arrow); }
      .arrow-blue { fill: none; stroke: #2563eb; stroke-width: 3; marker-end: url(#arrowBlue); }
      .arrow-green { fill: none; stroke: #059669; stroke-width: 3; marker-end: url(#arrowGreen); }
      .arrow-dashed { fill: none; stroke: #64748b; stroke-width: 2.3; stroke-dasharray: 8 7; marker-end: url(#arrow); }
      .event-return { fill: none; stroke: #2563eb; stroke-width: 2.4; stroke-dasharray: 7 5; marker-end: url(#arrowBlue); }
      .event-bus { fill: none; stroke: #2563eb; stroke-width: 2.2; stroke-dasharray: 7 5; }
      .command-bus { fill: none; stroke: #2563eb; stroke-width: 2.4; }
      .wire { fill: none; stroke: #0891b2; stroke-width: 2; stroke-dasharray: 6 5; }
      .divider { stroke: #cbd5e1; stroke-width: 1.5; }
    </style>
  </defs>

  <rect width="1800" height="1650" fill="url(#pageBg)"/>
  <text x="900" y="50" text-anchor="middle" class="title">楼上（Loushang）未来目标架构 v3</text>
  <text x="900" y="80" text-anchor="middle" class="subtitle">Target logical architecture：Product 边界 · 可附着客户端 · 共享执行底座</text>

  <!-- TUI foreground process: parallel composition -->
  <rect x="45" y="108" width="720" height="292" rx="24" fill="#ffffff" stroke="#0f766e" stroke-width="2.5" filter="url(#shadow)"/>
  <rect x="45" y="108" width="720" height="48" rx="24" fill="#ccfbf1"/>
  <path d="M45 132 Q45 108 69 108 H741 Q765 108 765 132 V156 H45 Z" fill="#ccfbf1"/>
  <text x="75" y="139" class="section">Product TUI 前台进程</text>
  <text x="730" y="139" text-anchor="end" class="small">组合根，不拥有长期任务</text>

  <rect x="75" y="180" width="175" height="70" rx="14" fill="#f0fdfa" stroke="#14b8a6" stroke-width="2"/>
  <text x="162" y="209" text-anchor="middle" class="box-title-sm">Product TUI</text>
  <text x="162" y="233" text-anchor="middle" class="copy">Composition</text>

  <rect x="295" y="180" width="170" height="70" rx="14" fill="#ecfeff" stroke="#0891b2" stroke-width="2"/>
  <text x="380" y="209" text-anchor="middle" class="box-title">Harnesstui</text>
  <text x="380" y="233" text-anchor="middle" class="copy">交互与投影</text>

  <rect x="510" y="180" width="175" height="70" rx="14" fill="#eff6ff" stroke="#3b82f6" stroke-width="2"/>
  <text x="597" y="209" text-anchor="middle" class="box-title">TUI Core</text>
  <text x="597" y="233" text-anchor="middle" class="copy">输入、布局、渲染</text>

  <path d="M250 215 H295" class="arrow"/>
  <path d="M465 215 H510" class="arrow"/>

  <rect x="75" y="292" width="200" height="66" rx="14" fill="#eff6ff" stroke="#2563eb" stroke-width="2"/>
  <text x="175" y="320" text-anchor="middle" class="box-title-sm">AppService Client</text>
  <text x="175" y="343" text-anchor="middle" class="copy">hosted backend · attachable</text>

  <rect x="310" y="292" width="220" height="66" rx="14" fill="#fff7ed" stroke="#f59e0b" stroke-width="2"/>
  <text x="420" y="319" text-anchor="middle" class="box-title-sm">Embedded Product Runtime</text>
  <text x="420" y="343" text-anchor="middle" class="copy">instance A · local-only</text>

  <rect x="560" y="292" width="170" height="66" rx="14" fill="#f5f3ff" stroke="#8b5cf6" stroke-width="2"/>
  <text x="645" y="319" text-anchor="middle" class="box-title-sm">Harness instance A</text>
  <text x="645" y="343" text-anchor="middle" class="copy">per-session instance</text>

  <path d="M380 250 V270" class="wire"/>
  <path d="M380 270 H175 V292" class="arrow-blue"/>
  <path d="M380 270 H420 V292" class="arrow-green"/>
  <path d="M530 325 H560" class="arrow-green"/>
  <text x="402" y="384" text-anchor="middle" class="tiny">Conversation UI Binding 启动时选 backend；Embedded 可存本地 transcript，但不自动 sync / migrate；多端续接使用 AppService</text>

  <!-- Other clients -->
  <rect x="810" y="130" width="250" height="205" rx="22" fill="#ffffff" stroke="#2563eb" stroke-width="2.5" filter="url(#shadow)"/>
  <text x="935" y="176" text-anchor="middle" class="box-title">WebUI</text>
  <text x="935" y="203" text-anchor="middle" class="copy">Browser Process</text>
  <line x1="842" y1="223" x2="1028" y2="223" class="divider"/>
  <text x="935" y="256" text-anchor="middle" class="copy">Product Web Adapter</text>
  <text x="935" y="283" text-anchor="middle" class="copy">App Client</text>

  <rect x="1105" y="130" width="250" height="205" rx="22" fill="#ffffff" stroke="#7c3aed" stroke-width="2.5" filter="url(#shadow)"/>
  <text x="1230" y="176" text-anchor="middle" class="box-title">IDE Extension</text>
  <text x="1230" y="203" text-anchor="middle" class="copy">Extension Host</text>
  <line x1="1137" y1="223" x2="1323" y2="223" class="divider"/>
  <text x="1230" y="256" text-anchor="middle" class="copy">Product IDE Adapter</text>
  <text x="1230" y="283" text-anchor="middle" class="copy">App Client</text>

  <rect x="1400" y="130" width="350" height="205" rx="22" fill="#ffffff" stroke="#ea580c" stroke-width="2.5" filter="url(#shadow)"/>
  <text x="1575" y="176" text-anchor="middle" class="box-title">P2P Peer</text>
  <text x="1575" y="203" text-anchor="middle" class="copy">手机 / 远程设备代理</text>
  <line x1="1432" y1="223" x2="1718" y2="223" class="divider"/>
  <text x="1575" y="256" text-anchor="middle" class="copy">Pairing · Resume · Notification</text>
  <text x="1575" y="283" text-anchor="middle" class="copy">不是 loushang.agent</text>

  <!-- Parallel boundary contracts over shared transports -->
  <rect x="150" y="450" width="900" height="68" rx="18" fill="#0f172a" filter="url(#shadow)"/>
  <text x="420" y="479" text-anchor="middle" class="protocol-title">App Contract → Versioned Protocol Values</text>
  <text x="420" y="501" text-anchor="middle" class="protocol-copy">commands · snapshots · approval · versioned events</text>
  <text x="1015" y="490" text-anchor="end" class="protocol-copy">应用语义</text>

  <rect x="1080" y="450" width="570" height="68" rx="18" fill="#1e3a8a" filter="url(#shadow)"/>
  <text x="1235" y="479" text-anchor="middle" class="protocol-title">Channel</text>
  <text x="1365" y="501" text-anchor="middle" class="protocol-copy">WorkOperation / WorkEvent / selected RuntimeEventView</text>
  <text x="1605" y="479" text-anchor="end" class="protocol-copy">非通用 UI 总线</text>

  <rect x="350" y="550" width="1100" height="58" rx="16" fill="#dbeafe" stroke="#2563eb" stroke-width="2"/>
  <text x="610" y="585" text-anchor="middle" class="box-title-sm">Transport</text>
  <text x="1085" y="585" text-anchor="middle" class="copy">IPC · HTTP/WS · P2P Direct · Relay（in-process 使用 direct adapter）</text>

  <path d="M175 358 V430 H1575" class="command-bus"/>
  <path d="M935 335 V430" class="command-bus"/>
  <path d="M1230 335 V430" class="command-bus"/>
  <path d="M1575 335 V430" class="command-bus"/>
  <path d="M850 430 V450" class="arrow-blue"/>
  <rect x="720" y="416" width="112" height="20" rx="6" fill="#ffffff" fill-opacity="0.96"/>
  <text x="776" y="430" text-anchor="middle" class="tiny">client input ↓</text>
  <path d="M700 518 V550" class="arrow-blue"/>
  <path d="M1280 518 V550" class="arrow-blue"/>

  <!-- Reverse delivery path: authority remains in AppService / Work / Harness -->
  <path d="M160 945 H65 V410 H1675" class="event-bus"/>
  <path d="M190 410 V375 H210 V358" class="event-return"/>
  <path d="M945 410 V350 H965 V335" class="event-return"/>
  <path d="M1240 410 V350 H1260 V335" class="event-return"/>
  <path d="M1585 410 V350 H1605 V335" class="event-return"/>
  <text x="920" y="404" text-anchor="middle" class="small">server delivery → clients：events · snapshots · interaction requests ↑</text>

  <!-- Application host -->
  <rect x="90" y="720" width="1620" height="840" rx="30" fill="url(#hostBg)" stroke="#334155" stroke-width="3" filter="url(#shadow)"/>
  <rect x="90" y="720" width="1620" height="62" rx="30" fill="#e2e8f0"/>
  <path d="M90 750 Q90 720 120 720 H1680 Q1710 720 1710 750 V782 H90 Z" fill="#e2e8f0"/>
  <text x="130" y="759" class="section">Application Host</text>
  <rect x="1065" y="735" width="250" height="34" rx="17" fill="#ffffff" stroke="#0f766e" stroke-width="1.5"/>
  <text x="1190" y="758" text-anchor="middle" class="pill">Local Daemon Profile</text>
  <rect x="1335" y="735" width="315" height="34" rx="17" fill="#ffffff" stroke="#7c3aed" stroke-width="1.5"/>
  <text x="1492" y="758" text-anchor="middle" class="pill">Cloud AppServer（tenant-scoped）</text>
  <text x="1492" y="801" text-anchor="middle" class="tiny">credential: BYOK / host-managed secret ref · usage/cost account · tenant-isolated store/workspace</text>

  <path d="M900 608 V815" class="arrow-blue"/>

  <!-- Main host flow -->
  <rect x="160" y="815" width="1080" height="66" rx="16" fill="#ffffff" stroke="#475569" stroke-width="2"/>
  <text x="700" y="842" text-anchor="middle" class="box-title">Endpoint Adapters</text>
  <text x="700" y="865" text-anchor="middle" class="copy">IPC · HTTP/WS · P2P · Managed Channels</text>

  <rect x="160" y="915" width="1080" height="88" rx="18" fill="#eff6ff" stroke="#2563eb" stroke-width="2.5"/>
  <text x="700" y="946" text-anchor="middle" class="box-title">AppService</text>
  <text x="700" y="973" text-anchor="middle" class="copy">principal/device context · attach / control lease · 幂等 · snapshot_revision · interaction routing</text>

  <rect x="160" y="1037" width="1080" height="76" rx="18" fill="#fff7ed" stroke="#f59e0b" stroke-width="2.5"/>
  <text x="700" y="1078" text-anchor="middle" class="box-title">Product Binding Registry</text>
  <text x="700" y="1023" text-anchor="middle" class="tiny">approval：先校验 principal / lease / idempotency；Harness 以 Session / invocation 关联，WorkRun 关联仅在 Work 路径存在</text>

  <path d="M700 881 V915" class="arrow"/>

  <!-- Host infrastructure side plane -->
  <rect x="1300" y="815" width="340" height="300" rx="20" fill="#f8fafc" stroke="#64748b" stroke-width="2"/>
  <text x="1470" y="849" text-anchor="middle" class="box-title">Host Infrastructure</text>
  <rect x="1330" y="870" width="280" height="40" rx="11" fill="#ffffff" stroke="#94a3b8"/>
  <text x="1470" y="896" text-anchor="middle" class="pill">Compute / Resource Admission</text>
  <rect x="1330" y="922" width="280" height="40" rx="11" fill="#ffffff" stroke="#94a3b8"/>
  <text x="1470" y="948" text-anchor="middle" class="pill">Live Session Routing Table</text>
  <rect x="1330" y="974" width="280" height="40" rx="11" fill="#ffffff" stroke="#94a3b8"/>
  <text x="1470" y="1000" text-anchor="middle" class="pill">Remote Capability / Job / Workers</text>
  <rect x="1330" y="1026" width="280" height="40" rx="11" fill="#ffffff" stroke="#94a3b8"/>
  <text x="1470" y="1052" text-anchor="middle" class="pill">Bounded Delivery Buffer</text>
  <text x="1470" y="1080" text-anchor="middle" class="tiny">invoke · submit/await · optional managed execution</text>
  <text x="1470" y="1095" text-anchor="middle" class="tiny">服务实例不因远程而默认有状态</text>
  <text x="1470" y="1110" text-anchor="middle" class="tiny">usage/cost · 同 Session 串行</text>
  <path d="M1240 959 H1300" class="arrow"/>
  <text x="1268" y="947" text-anchor="middle" class="tiny">admit / activate</text>
  <path d="M1300 1080 H1265 V1075 H1240" class="arrow"/>
  <text x="1268" y="1102" text-anchor="middle" class="tiny">resolved placement</text>

  <rect x="1300" y="1125" width="340" height="92" rx="17" fill="#ffffff" stroke="#94a3b8" stroke-width="1.5"/>
  <text x="1470" y="1157" text-anchor="middle" class="box-title-sm">AppService Control / Trust Plane</text>
  <text x="1470" y="1183" text-anchor="middle" class="small">Identity · Device · Attachment · Lease</text>
  <text x="1470" y="1203" text-anchor="middle" class="small">Tenant / principal authz · credential references</text>
  <path d="M1240 975 H1265 V1171 H1300" class="arrow"/>

  <!-- Shared product runtime core -->
  <rect x="160" y="1150" width="1080" height="210" rx="22" fill="#fffaf0" stroke="#d97706" stroke-width="2.5"/>
  <text x="700" y="1188" text-anchor="middle" class="box-title">Hosted Product Runtime · instance B</text>
  <text x="700" y="1210" text-anchor="middle" class="small">Mount examples：coding.lsp@session:demo · coding.arch@workspace:repo · …</text>

  <rect x="190" y="1230" width="225" height="88" rx="14" fill="#f0fdfa" stroke="#14b8a6" stroke-width="2"/>
  <text x="302" y="1260" text-anchor="middle" class="box-title-sm">Conversation Capability</text>
  <text x="302" y="1285" text-anchor="middle" class="small">product prompt / tool profile / policy</text>
  <text x="302" y="1305" text-anchor="middle" class="small">session operations</text>

  <rect x="445" y="1230" width="225" height="88" rx="14" fill="#fff1f2" stroke="#e11d48" stroke-width="2"/>
  <text x="557" y="1260" text-anchor="middle" class="box-title-sm">Work Preparer</text>
  <text x="557" y="1285" text-anchor="middle" class="small">operation · run spec</text>
  <text x="557" y="1305" text-anchor="middle" class="small">optional method binding</text>

  <rect x="700" y="1230" width="240" height="88" rx="14" fill="#f0fdf4" stroke="#16a34a" stroke-width="2"/>
  <text x="820" y="1260" text-anchor="middle" class="box-title-sm">Product Work Execution Binding</text>
  <text x="820" y="1285" text-anchor="middle" class="small">implements WorkDomainExecutor</text>
  <text x="820" y="1305" text-anchor="middle" class="small">Product-owned</text>

  <rect x="970" y="1230" width="235" height="88" rx="14" fill="#eff6ff" stroke="#2563eb" stroke-width="2"/>
  <text x="1087" y="1260" text-anchor="middle" class="box-title-sm">Event / Interaction Projection</text>
  <text x="1087" y="1285" text-anchor="middle" class="small">Harness / Work facts · approval request</text>
  <text x="1087" y="1305" text-anchor="middle" class="small">→ application views / interaction route</text>

  <path d="M700 1113 V1150" class="arrow"/>
  <path d="M1087 1230 V1132 H1268 V959 H1240" class="arrow-blue"/>
  <text x="1010" y="1143" class="small">events / snapshots / approval ↑</text>

  <rect x="1300" y="1245" width="340" height="92" rx="17" fill="#ffffff" stroke="#94a3b8" stroke-width="1.5"/>
  <text x="1470" y="1273" text-anchor="middle" class="box-title-sm">Workspace / Artifact Boundary</text>
  <text x="1470" y="1296" text-anchor="middle" class="tiny">Harness：workspace / sandbox mechanism</text>
  <text x="1470" y="1314" text-anchor="middle" class="tiny">Work：持久 WorkRun 的 ArtifactRef / correlation</text>
  <text x="1470" y="1332" text-anchor="middle" class="tiny">Product：content / validation；lightweight output 留在 Session / workspace</text>
  <path d="M1240 1290 H1300" class="arrow-dashed"/>

  <!-- Semantic cores and owned stores -->
  <rect x="160" y="1410" width="270" height="92" rx="18" fill="#fefce8" stroke="#ca8a04" stroke-width="2.5"/>
  <text x="295" y="1442" text-anchor="middle" class="box-title">Method</text>
  <text x="295" y="1468" text-anchor="middle" class="copy">提示准备可选</text>
  <text x="295" y="1490" text-anchor="middle" class="small">结构化履约必须经 Work</text>

  <rect x="545" y="1410" width="280" height="92" rx="18" fill="#fff1f2" stroke="#e11d48" stroke-width="2.5"/>
  <text x="685" y="1442" text-anchor="middle" class="box-title">Work</text>
  <text x="685" y="1468" text-anchor="middle" class="copy">业务承诺 · 计划履约 · 权威终态</text>
  <text x="685" y="1490" text-anchor="middle" class="small">event log · replay · artifact refs</text>

  <rect x="990" y="1410" width="300" height="92" rx="18" fill="#f5f3ff" stroke="#7c3aed" stroke-width="2.5"/>
  <text x="1140" y="1442" text-anchor="middle" class="box-title">Harness Capability IDs</text>
  <text x="1140" y="1468" text-anchor="middle" class="copy">harness.workspace · harness.resources</text>
  <text x="1140" y="1490" text-anchor="middle" class="small">harness.session</text>

  <rect x="1370" y="1410" width="270" height="92" rx="18" fill="#ede9fe" stroke="#8b5cf6" stroke-width="2"/>
  <text x="1505" y="1442" text-anchor="middle" class="box-title-sm">Agent + AI / Tool Kernel</text>
  <text x="1505" y="1468" text-anchor="middle" class="copy">Agent → AI</text>
  <text x="1505" y="1490" text-anchor="middle" class="small">Harness / Agent → Tools → Sandbox</text>

  <path d="M1290 1456 H1670 V994 H1640" class="arrow-dashed"/>
  <text x="1658" y="1255" text-anchor="middle" class="tiny" transform="rotate(-90 1658 1255)">injected capability client（optional）</text>

  <!-- Runtime routes -->
  <path d="M302 1318 V1390 H1060 V1410" class="arrow-green"/>
  <rect x="770" y="1374" width="250" height="22" rx="6" fill="#ffffff" fill-opacity="0.96"/>
  <text x="895" y="1390" text-anchor="middle" class="small">session_turn：无持久业务承诺</text>

  <path d="M557 1318 V1360 H685 V1410" class="arrow"/>
  <rect x="545" y="1343" width="260" height="22" rx="6" fill="#ffffff" fill-opacity="0.96"/>
  <text x="675" y="1359" text-anchor="middle" class="tiny">submit_work · standard Channel: SubmitCodingTurn</text>

  <path d="M520 1318 V1340 H295 V1410" class="arrow-dashed"/>
  <text x="330" y="1334" class="small">optional compile / tailor</text>
  <path d="M430 1456 H470 V1385 H640 V1318" class="arrow-dashed"/>
  <rect x="475" y="1371" width="250" height="21" rx="6" fill="#ffffff" fill-opacity="0.96"/>
  <text x="600" y="1386" text-anchor="middle" class="tiny">MethodPlan 回到 Product Work Preparer</text>

  <path d="M685 1410 V1382 H820 V1318" class="arrow"/>
  <path d="M940 1274 H965 V1365 H1200 V1410" class="arrow"/>

  <path d="M825 1478 H955 V1340 H1040 V1318" class="event-return"/>
  <path d="M1220 1410 V1340 H1160 V1318" class="event-return"/>

  <path d="M1290 1456 H1370" class="arrow"/>

  <!-- Authoritative stores -->
  <rect x="160" y="1520" width="270" height="28" rx="14" fill="#ffffff" stroke="#ca8a04"/>
  <text x="295" y="1539" text-anchor="middle" class="tiny">Method Catalog</text>
  <rect x="545" y="1520" width="280" height="28" rx="14" fill="#ffffff" stroke="#e11d48"/>
  <text x="685" y="1539" text-anchor="middle" class="tiny">Work Event Log · replay source</text>
  <rect x="990" y="1520" width="300" height="28" rx="14" fill="#ffffff" stroke="#7c3aed"/>
  <text x="1140" y="1539" text-anchor="middle" class="tiny">Conversation Store · Product / Host binding</text>
  <path d="M295 1502 V1520" class="wire"/>
  <path d="M685 1502 V1520" class="wire"/>
  <path d="M1140 1502 V1520" class="wire"/>

  <!-- Legend -->
  <line x1="90" y1="1594" x2="1710" y2="1594" class="divider"/>
  <circle cx="185" cy="1625" r="6" fill="#059669"/>
  <text x="200" y="1631" class="small">绿色：本地直连 / 非 Work Session turn</text>
  <circle cx="525" cy="1625" r="6" fill="#2563eb"/>
  <text x="540" y="1631" class="small">蓝色：跨进程协议或反向事件</text>
  <circle cx="920" cy="1625" r="6" fill="#64748b"/>
  <text x="935" y="1631" class="small">虚线：可选绑定；青色线：组合注入 / owns</text>
  <text x="1675" y="1631" text-anchor="end" class="small">cursor gap → SnapshotRequired；Attachment 断开 ≠ Session / Work 结束</text>
</svg>
